<svg xmlns="http://www.w3.org/2000/svg" xmlns:svg="http://www.w3.org/2000/svg" id="svg11" width="380" height="380" fill="none" version="1.1" viewBox="0 0 380 380"><path id="path1" fill="url(#paint0_linear_1268_533)" d="M 160,338 H 336 V 72 C 336,55.4315 322.569,42 306,42 H 70 C 53.4315,42 40,55.4315 40,72 v 146 c 0,66.274 53.7258,120 120,120 z" style="fill:url(#paint0_linear_1268_533);filter:url(#filter17)"/><defs id="defs11"><filter id="filter0_b_1268_533" width="263.6" height="263.6" x="15.7" y="15.7" color-interpolation-filters="sRGB" filterUnits="userSpaceOnUse"><feFlood id="feFlood6" flood-opacity="0" result="BackgroundImageFix"/><feGaussianBlur id="feGaussianBlur6" in="BackgroundImageFix" stdDeviation="19.65"/><feComposite id="feComposite6" in2="SourceAlpha" operator="in" result="effect1_backgroundBlur_1268_533"/><feBlend id="feBlend6" in="SourceGraphic" in2="effect1_backgroundBlur_1268_533" mode="normal" result="shape"/></filter><filter id="filter1_b_1268_533" width="90" height="265" x="200" y="15" color-interpolation-filters="sRGB" filterUnits="userSpaceOnUse"><feFlood id="feFlood7" flood-opacity="0" result="BackgroundImageFix"/><feGaussianBlur id="feGaussianBlur7" in="BackgroundImageFix" stdDeviation="20"/><feComposite id="feComposite7" in2="SourceAlpha" operator="in" result="effect1_backgroundBlur_1268_533"/><feBlend id="feBlend7" in="SourceGraphic" in2="effect1_backgroundBlur_1268_533" mode="normal" result="shape"/></filter><filter id="filter2_b_1268_533" width="90" height="265" x="210" y="15" color-interpolation-filters="sRGB" filterUnits="userSpaceOnUse"><feFlood id="feFlood8" flood-opacity="0" result="BackgroundImageFix"/><feGaussianBlur id="feGaussianBlur8" in="BackgroundImageFix" stdDeviation="20"/><feComposite id="feComposite8" in2="SourceAlpha" operator="in" result="effect1_backgroundBlur_1268_533"/><feBlend id="feBlend8" in="SourceGraphic" in2="effect1_backgroundBlur_1268_533" mode="normal" result="shape"/></filter><filter id="filter3_b_1268_533" width="213" height="265" x="67" y="15" color-interpolation-filters="sRGB" filterUnits="userSpaceOnUse"><feFlood id="feFlood9" flood-opacity="0" result="BackgroundImageFix"/><feGaussianBlur id="feGaussianBlur9" in="BackgroundImageFix" stdDeviation="20"/><feComposite id="feComposite9" in2="SourceAlpha" operator="in" result="effect1_backgroundBlur_1268_533"/><feBlend id="feBlend9" in="SourceGraphic" in2="effect1_backgroundBlur_1268_533" mode="normal" result="shape"/></filter><filter id="filter4_b_1268_533" width="239" height="265" x="41" y="15" color-interpolation-filters="sRGB" filterUnits="userSpaceOnUse"><feFlood id="feFlood10" flood-opacity="0" result="BackgroundImageFix"/><feGaussianBlur id="feGaussianBlur10" in="BackgroundImageFix" stdDeviation="20"/><feComposite id="feComposite10" in2="SourceAlpha" operator="in" result="effect1_backgroundBlur_1268_533"/><feBlend id="feBlend10" in="SourceGraphic" in2="effect1_backgroundBlur_1268_533" mode="normal" result="shape"/></filter><linearGradient id="paint0_linear_1268_533" x1="279" x2="-39.52" y1="296" y2="51.481" gradientTransform="translate(40,42)" gradientUnits="userSpaceOnUse"><stop id="stop10" offset=".186" stop-color="#3550EC"/><stop id="stop11" offset=".795" stop-color="#252B4B"/></linearGradient><filter style="color-interpolation-filters:sRGB" id="filter17" width="1" height="1.037" x="0" y="0"><feFlood id="feFlood16" flood-color="#000" flood-opacity=".286" in="SourceGraphic" result="flood"/><feGaussianBlur id="feGaussianBlur16" in="SourceGraphic" result="blur" stdDeviation="0"/><feOffset id="feOffset16" dx="0" dy="6" in="blur" result="offset"/><feComposite id="feComposite16" in="flood" in2="offset" operator="in" result="comp1"/><feComposite id="feComposite17" in="SourceGraphic" in2="comp1" operator="over" result="fbSourceGraphic"/><feColorMatrix id="feColorMatrix4" in="fbSourceGraphic" result="fbSourceGraphicAlpha" values="0 0 0 -1 0 0 0 0 -1 0 0 0 0 -1 0 0 0 0 1 0"/><feFlood id="feFlood4" flood-color="#FFF" flood-opacity=".286" in="fbSourceGraphic" result="flood"/><feGaussianBlur id="feGaussianBlur4" in="fbSourceGraphic" result="blur" stdDeviation="0"/><feOffset id="feOffset4" dx="0" dy="5" in="blur" result="offset"/><feComposite id="feComposite4" in="flood" in2="offset" operator="out" result="comp1"/><feComposite id="feComposite5" in="comp1" in2="fbSourceGraphic" operator="atop" result="comp2"/></filter><filter style="color-interpolation-filters:sRGB" id="filter23" width="1.017" height="1.016" x="0" y="0"><feFlood id="feFlood22" flood-color="#FFF" flood-opacity=".286" in="SourceGraphic" result="flood"/><feGaussianBlur id="feGaussianBlur22" in="SourceGraphic" result="blur" stdDeviation="0"/><feOffset id="feOffset22" dx="2" dy="2" in="blur" result="offset"/><feComposite id="feComposite22" in="flood" in2="offset" operator="in" result="comp1"/><feComposite id="feComposite23" in="SourceGraphic" in2="comp1" operator="over" result="comp2"/></filter></defs><g id="g2" style="opacity:.901;fill:#fff;filter:url(#filter23)" transform="matrix(1.5287105,0,0,1.5287105,96.38942,102.54727)"><path id="path1-6" d="m 17.2,0 h 62.29 c 4.73,0 9.03,1.93 12.15,5.05 3.12,3.12 5.05,7.42 5.05,12.15 v 38.35 c 0,4.73 -1.93,9.03 -5.05,12.15 -3.12,3.12 -7.42,5.05 -12.15,5.05 H 46.92 L 20.81,95.2 c -1.21,1.04 -3.04,0.9 -4.08,-0.32 -0.51,-0.6 -0.74,-1.34 -0.69,-2.07 L 17.43,72.74 H 17.2 C 12.47,72.74 8.17,70.81 5.05,67.69 1.93,64.58 0,60.28 0,55.55 V 17.2 C 0,12.47 1.93,8.17 5.05,5.05 8.16,1.93 12.46,0 17.2,0 Z m 45.92,29.37 c 4.48,0 8.11,3.63 8.11,8.11 0,4.48 -3.63,8.11 -8.11,8.11 -4.48,0 -8.11,-3.63 -8.11,-8.11 0,-4.48 3.63,-8.11 8.11,-8.11 z m -29.43,0 c 4.48,0 8.11,3.63 8.11,8.11 0,4.48 -3.63,8.11 -8.11,8.11 -4.48,0 -8.11,-3.63 -8.11,-8.11 0,-4.48 3.63,-8.11 8.11,-8.11 z m 73.1,-1.39 c 3.37,0.65 6.39,2.31 8.73,4.65 3.05,3.05 4.95,7.26 4.95,11.9 v 38.35 c 0,4.64 -1.89,8.85 -4.95,11.9 -3.05,3.05 -7.26,4.95 -11.9,4.95 h -0.61 l 1.42,20.44 v 0 c 0.04,0.64 -0.15,1.3 -0.6,1.82 -0.91,1.07 -2.52,1.19 -3.58,0.28 L 74.04,99.07 H 39.49 L 56.5,81.77 h 36.04 c 7.86,0 14.3,-6.43 14.3,-14.3 V 29.11 c -0.01,-0.38 -0.02,-0.76 -0.05,-1.13 z M 79.48,5.8 H 17.2 C 14.07,5.8 11.22,7.08 9.15,9.15 7.08,11.22 5.8,14.06 5.8,17.2 v 38.35 c 0,3.13 1.28,5.98 3.35,8.05 2.07,2.07 4.92,3.35 8.05,3.35 h 3.34 v 0.01 l 0.19,0.01 c 1.59,0.11 2.8,1.49 2.69,3.08 L 22.29,86.31 43.83,67.79 c 0.52,-0.52 1.24,-0.84 2.04,-0.84 h 33.61 c 3.13,0 5.98,-1.28 8.05,-3.35 2.07,-2.07 3.35,-4.92 3.35,-8.05 V 17.2 C 90.88,14.07 89.6,11.22 87.53,9.15 85.46,7.08 82.61,5.8 79.48,5.8 Z" class="st0" style="clip-rule:evenodd;fill:#fff;fill-rule:evenodd"/></g></svg>