<svg xmlns="http://www.w3.org/2000/svg" xmlns:svg="http://www.w3.org/2000/svg" xmlns:xlink="http://www.w3.org/1999/xlink" id="svg7" width="24" height="24" version="1"><defs id="defs1"><linearGradient id="linearGradient3"><stop style="stop-color:#0047ab;stop-opacity:1" id="stop3" offset="0"/><stop style="stop-color:#8a2be2;stop-opacity:1" id="stop4" offset="1"/></linearGradient><linearGradient id="linearGradient1"><stop style="stop-color:#8a2be2;stop-opacity:1" id="stop1" offset="0"/><stop style="stop-color:#0047ab;stop-opacity:1" id="stop2" offset="1"/></linearGradient><linearGradient id="linearGradient2" x1="22.808" x2="-39.348" y1="25.008" y2="-44.294" gradientUnits="userSpaceOnUse" xlink:href="#linearGradient1"/><linearGradient id="linearGradient4" x1="-7.358" x2="34.336" y1="24.617" y2="-10.172" gradientUnits="userSpaceOnUse" xlink:href="#linearGradient3"/></defs><path style="opacity:.2" id="path1" d="m 5,2.5 c -0.554,0 -1,0.446 -1,1 v 18 c 0,0.554 0.446,1 1,1 h 14 c 0.554,0 1,-0.446 1,-1 V 8.5 L 14.5,8 14,2.5 Z"/><path id="path2" fill="#c03630" d="m5 2c-0.554 0-1 0.446-1 1v18c0 0.554 0.446 1 1 1h14c0.554 0 1-0.446 1-1v-13l-5.5-0.5-0.5-5.5z" style="fill:url(#linearGradient2);fill-opacity:1"/><path style="opacity:.2" id="path3" fill="#fff" d="m5 2c-0.554 0-1 0.446-1 1v0.5c0-0.554 0.446-1 1-1h9l5.5 5.5h0.5l-6-6z"/><path style="opacity:.2" id="path4" d="m 14,2.5 v 5 c 0,0.5523 0.44772,1 1,1 h 5 z"/><path id="path5" fill="#f36961" d="m14 2v5c0 0.5523 0.44772 1 1 1h5l-6-6z" style="fill:url(#linearGradient4);fill-opacity:1;opacity:1"/><g id="g1" transform="translate(0.44180605)" style="opacity:.9;mix-blend-mode:lighten;image-rendering:auto"><path id="path1-2" fill="#fff" fill-rule="evenodd" d="m 8.9241554,9.8288292 c -0.9698425,0 -1.7560542,0.7862118 -1.7560542,1.7560538 v 1.615573 1.018511 c 0,2.424604 1.9655353,4.390139 4.3901388,4.390139 2.424603,0 4.390138,-1.965535 4.390138,-4.390139 0,-2.424603 -1.965535,-4.3901378 -4.390138,-4.3901378 h -1.018512 v 2.2477498 h 2.356363 c 0.987447,0 1.787926,0.80048 1.787926,1.787929 0,1.922072 -1.558147,3.480237 -3.480236,3.480237 -0.98745,0 -1.7879293,-0.800479 -1.7879293,-1.787926 V 13.200456 H 7.1681012 V 12.076579 H 9.4158517 V 9.8288292 Z m 1.6155726,5.7279898 v -2.356363 h 2.356363 c 0.366751,0 0.664053,0.297299 0.664053,0.664052 0,1.301376 -1.054988,2.356363 -2.356363,2.356363 -0.366754,0 -0.664053,-0.297302 -0.664053,-0.664052 z" clip-rule="evenodd" style="stroke-width:.0175605"/><path id="path2-9" stroke="#fff" stroke-width=".527" d="m 9.4158517,10.092238 h -0.263409 v 0.263406 1.457526 H 7.694916 7.4315099 v 0.263409 1.123877 0.263406 H 7.694916 9.1524427 v 1.457527 0.263409 h 0.263409 1.1238763 0.263406 v -0.263409 -1.457527 h 1.457527 0.263409 V 13.200456 12.076579 11.81317 h -0.263409 -1.457527 v -1.457526 -0.263406 h -0.263406 z" style="mix-blend-mode:lighten;stroke-width:.527;stroke-dasharray:none"/><path id="path3-1" fill="#fff" d="m 11.777746,12.562481 c 0.05853,0.03379 0.05853,0.118288 0,0.152073 l -0.368772,0.212905 c -0.05853,0.0338 -0.131703,-0.0085 -0.131703,-0.07604 V 12.42561 c 0,-0.06759 0.07317,-0.109841 0.131703,-0.07604 z" style="stroke-width:.0175605"/><path id="path4-2" fill="#fff" d="m 10.053826,14.438473 c -0.03378,0.05853 -0.118287,0.05853 -0.1520724,0 L 9.6888492,14.069702 c -0.033806,-0.05853 0.00846,-0.131703 0.076035,-0.131703 h 0.4258088 c 0.06759,0 0.109841,0.07317 0.07604,0.131703 z" style="stroke-width:.0175605"/><path id="path5-7" fill="#fff" d="m 9.9017536,10.838559 c 0.033785,-0.05853 0.1182874,-0.05853 0.1520724,0 l 0.212905,0.368774 c 0.0338,0.05853 -0.0085,0.131704 -0.07604,0.131704 H 9.7648841 c -0.067589,0 -0.1098412,-0.07317 -0.076035,-0.131704 z" style="stroke-width:.0175605"/><path id="path6-0" fill="#fff" d="m 8.1778313,12.714554 c -0.058529,-0.03378 -0.058529,-0.118287 0,-0.152073 l 0.3687745,-0.212904 c 0.058529,-0.03381 0.131703,0.0085 0.131703,0.07604 v 0.425809 c 0,0.06759 -0.073174,0.109841 -0.131703,0.07604 z" style="stroke-width:.0175605"/></g></svg>