<svg xmlns="http://www.w3.org/2000/svg" xmlns:svg="http://www.w3.org/2000/svg" xmlns:xlink="http://www.w3.org/1999/xlink" id="svg1" width="800" height="800" fill="#000" class="cf-icon-svg" version="1.1" viewBox="-1.7 0 20.4 20.4" xml:space="preserve"><defs id="defs1"><linearGradient id="linearGradient10"><stop style="stop-color:#fff;stop-opacity:1" id="stop10" offset="0"/><stop style="stop-color:#f1e3fe;stop-opacity:1" id="stop11" offset="1"/></linearGradient><linearGradient id="linearGradient6"><stop style="stop-color:#294528;stop-opacity:1" id="stop6" offset="0"/><stop style="stop-color:#000;stop-opacity:1" id="stop7" offset="1"/></linearGradient><linearGradient id="linearGradient1"><stop style="stop-color:#0047ab;stop-opacity:1" id="stop1" offset="0"/><stop style="stop-color:#8a2be2;stop-opacity:1" id="stop2" offset="1"/></linearGradient><linearGradient id="linearGradient2" x1="2.857" x2="12.168" y1="4.882" y2="13.97" gradientUnits="userSpaceOnUse" xlink:href="#linearGradient1"/><linearGradient id="linearGradient7" x1="1.761" x2="15.253" y1="3.842" y2="16.474" gradientUnits="userSpaceOnUse" xlink:href="#linearGradient6"/><linearGradient id="linearGradient11" x1="1.715" x2="15.387" y1="10.157" y2="10.157" gradientUnits="userSpaceOnUse" xlink:href="#linearGradient10"/><filter style="color-interpolation-filters:sRGB" id="filter12" width="1" height="1.038" x="0" y="0"><feFlood id="feFlood11" flood-color="#FFF" flood-opacity=".286" in="SourceGraphic" result="flood"/><feGaussianBlur id="feGaussianBlur11" in="SourceGraphic" result="blur" stdDeviation="0"/><feOffset id="feOffset11" dx="0" dy=".3" in="blur" result="offset"/><feComposite id="feComposite11" in="flood" in2="offset" operator="out" result="comp1"/><feComposite id="feComposite12" in="comp1" in2="SourceGraphic" operator="atop" result="fbSourceGraphic"/><feColorMatrix id="feColorMatrix12" in="fbSourceGraphic" result="fbSourceGraphicAlpha" values="0 0 0 -1 0 0 0 0 -1 0 0 0 0 -1 0 0 0 0 1 0"/><feFlood id="feFlood12" flood-color="#000" flood-opacity=".286" in="fbSourceGraphic" result="flood"/><feGaussianBlur id="feGaussianBlur12" in="fbSourceGraphic" result="blur" stdDeviation="0"/><feOffset id="feOffset12" dx="0" dy=".3" in="blur" result="offset"/><feComposite id="feComposite13" in="flood" in2="offset" operator="in" result="comp1"/><feComposite id="feComposite14" in="fbSourceGraphic" in2="comp1" operator="over" result="comp2"/></filter></defs><ellipse style="display:inline;fill:url(#linearGradient11);stroke:url(#linearGradient7);stroke-width:.0255" id="path2" cx="8.551" cy="10.157" mask="none" rx="6.823" ry="6.36"/><path id="path4" d="M 8.5 2.3660215 C 5.2977954 2.3656198 2.4106263 4.2942758 1.1849863 7.2525586 C -0.040651012 10.210835 0.63660944 13.616141 2.9007578 15.880573 C 5.1649061 18.145007 8.5700933 18.822706 11.528523 17.59744 C 14.48696 16.372174 16.416006 13.485229 16.416007 10.283024 C 16.416561 5.910758 12.872268 2.3660177 8.5 2.3660215 z M 8.5 4.5703271 C 8.857503 4.5703271 9.1463154 4.8591395 9.1463154 5.2166426 L 9.1463154 10.118719 L 10.626859 8.6361826 C 10.879334 8.3837084 11.289349 8.3837084 11.541821 8.6361826 C 11.794296 8.8886566 11.794296 9.2986708 11.541821 9.5511445 L 8.95646 12.136456 C 8.703986 12.38893 8.293972 12.38893 8.041498 12.136456 L 5.4561865 9.5511445 C 5.2037126 9.2986708 5.2037126 8.8886566 5.4561865 8.6361826 C 5.7086605 8.3837084 6.1186745 8.3837084 6.3711484 8.6361826 L 7.8536846 10.118719 L 7.8536846 5.2166426 C 7.8536846 4.8591395 8.142497 4.5703271 8.5 4.5703271 z M 4.6220078 11.679996 L 6.6720684 11.679996 L 7.5850381 12.594958 C 8.089986 13.099906 8.9080219 13.099906 9.4129697 12.594958 L 10.327932 11.679996 L 12.377992 11.679996 C 13.090979 11.679996 13.670673 12.25969 13.670673 12.972677 L 13.670673 13.618992 C 13.670673 14.331979 13.090979 14.911673 12.377992 14.911673 L 4.6220078 14.911673 C 3.9090215 14.911673 3.3293271 14.331979 3.3293271 13.618992 L 3.3293271 12.972677 C 3.3293271 12.25969 3.9090215 11.679996 4.6220078 11.679996 z M 12.054859 12.81111 A 0.48475075 0.48475075 0 1 0 12.054859 13.780608 A 0.48475075 0.48475075 0 1 0 12.054859 12.81111 z" style="display:inline;fill:url(#linearGradient2);filter:url(#filter12)"/></svg>